# xmcd CD database file
#
# Track frame offsets:
#	150
#	17230
#	18290
#	35470
#	52117
#	69885
#	75255
#	102047
#
# Disc length: 1507 seconds
#
# Revision: 0
# Processed by: cddbd v1.5.1PL0 Copyright (c) Steve Scherf et al.
# Submitted via: CDex 1.51
#
DISCID=5305e108
DTITLE=Our Love to Stay - ハピネス
DYEAR=2004
DGENRE=Jazz
TTITLE0=ハピネス
TTITLE1=Interlude 1
TTITLE2=The Christmas Song
TTITLE3=Starry night
TTITLE4=愛の種
TTITLE5=Interlude 2
TTITLE6=おやすみ
TTITLE7=ハピネス（Stepping Piano Mix)
EXTD=YEAR: 2004
EXTT0=
EXTT1=
EXTT2=
EXTT3=
EXTT4=
EXTT5=
EXTT6=
EXTT7=
PLAYORDER=
